<?xml version="1.0" encoding="UTF-8" standalone="no"?>
<svg
   role="img"
   viewBox="0 0 24 24"
   version="1.1"
   id="svg13"
   sodipodi:docname="devdotto.svg"
   inkscape:version="1.1.2 (b8e25be8, 2022-02-05)"
   xmlns:inkscape="http://www.inkscape.org/namespaces/inkscape"
   xmlns:sodipodi="http://sodipodi.sourceforge.net/DTD/sodipodi-0.dtd"
   xmlns="http://www.w3.org/2000/svg"
   xmlns:svg="http://www.w3.org/2000/svg">
  <defs
     id="defs17" />
  <sodipodi:namedview
     id="namedview15"
     pagecolor="#ffffff"
     bordercolor="#999999"
     borderopacity="1"
     inkscape:pageshadow="0"
     inkscape:pageopacity="0"
     inkscape:pagecheckerboard="0"
     showgrid="false"
     inkscape:zoom="26.041667"
     inkscape:cx="12"
     inkscape:cy="12"
     inkscape:window-width="1440"
     inkscape:window-height="847"
     inkscape:window-x="0"
     inkscape:window-y="25"
     inkscape:window-maximized="0"
     inkscape:current-layer="svg13" />
  <title
     id="title9">dev.to</title>
  <path
     d="M7.42 10.05c-.18-.16-.46-.23-.84-.23H6l.02 2.44.04 2.45.56-.02c.41 0 .63-.07.83-.26.24-.24.26-.36.26-2.2 0-1.91-.02-1.96-.29-2.18zM0 4.94v14.12h24V4.94H0zM8.56 15.3c-.44.58-1.06.77-2.53.77H4.71V8.53h1.4c1.67 0 2.16.18 2.6.9.27.43.29.6.32 2.57.05 2.23-.02 2.73-.47 3.3zm5.09-5.47h-2.47v1.77h1.52v1.28l-.72.04-.75.03v1.77l1.22.03 1.2.04v1.28h-1.6c-1.53 0-1.6-.01-1.87-.3l-.3-.28v-3.16c0-3.02.01-3.18.25-3.48.23-.31.25-.31 1.88-.31h1.64v1.3zm4.68 5.45c-.17.43-.64.79-1 .79-.18 0-.45-.15-.67-.39-.32-.32-.45-.63-.82-2.08l-.9-3.39-.45-1.67h.76c.4 0 .75.02.75.05 0 .06 1.16 4.54 1.26 4.83.04.15.32-.7.73-2.3l.66-2.52.74-.04c.4-.02.73 0 .73.04 0 .14-1.67 6.38-1.8 6.68z"
     id="path11" />
  <path
     style="fill:#ffffff;stroke:#000000;stroke-width:0.133862"
     d="M 4.7424,12.308139 V 8.5338416 l 1.2384,0.022026 C 7.3507545,8.580233 7.62867,8.6151937 8.0335485,8.814095 8.4627199,9.0249304 8.8394888,9.5559919 8.9316622,10.08 c 0.026651,0.151514 0.05119,0.958835 0.062443,2.0544 0.020292,1.975479 -0.00401,2.307724 -0.2001861,2.736404 -0.2191212,0.47883 -0.6395898,0.858298 -1.113084,1.004546 C 7.3005557,15.992806 6.9492637,16.026592 5.808,16.055471 l -1.0656,0.02697 z m 2.383591,2.336088 c 0.1800999,-0.05396 0.4010192,-0.231292 0.4811263,-0.386202 0.037576,-0.07266 0.074683,-0.311193 0.099524,-0.639744 0.050145,-0.663237 0.015127,-3.031488 -0.048196,-3.259559 C 7.5994764,10.146338 7.3809066,9.948888 7.1185185,9.8709671 6.9839151,9.8309942 6.760489,9.8112 6.4439009,9.8112 H 5.9705411 l 0.020556,1.68 c 0.011306,0.924 0.030726,2.032469 0.043156,2.463263 l 0.0226,0.783263 0.4613249,-0.02481 c 0.2537288,-0.01364 0.5272446,-0.04455 0.607813,-0.06869 z"
     id="path1142" />
  <path
     style="fill:#ffffff;stroke:#000000;stroke-width:0.133862"
     d="m 11.1552,16.033242 c -0.672064,-0.02701 -0.678851,-0.02932 -1.03137,-0.35052 L 9.888,15.467844 9.89018,13.033122 c 0.0026,-2.907504 0.030991,-3.7077476 0.14025,-3.9536616 0.108359,-0.2438909 0.263051,-0.4112994 0.426438,-0.4614933 0.08977,-0.027578 0.692741,-0.050792 1.648732,-0.063474 l 1.5072,-0.019994 V 9.1728492 9.8112 H 12.384 11.1552 v 0.9024 0.9024 h 0.768951 0.768951 l -0.01055,0.624 -0.01055,0.624 -0.7392,0.03437 -0.7392,0.03437 v 0.891276 0.891276 l 0.2592,0.02448 c 0.14256,0.01346 0.450868,0.0246 0.685128,0.02475 0.234261,1.54e-4 0.661941,0.01159 0.9504,0.02543 l 0.524472,0.02515 v 0.627647 0.627647 l -0.9312,-0.0066 c -0.51216,-0.0036 -1.19904,-0.01738 -1.5264,-0.03054 z"
     id="path1181" />
  <path
     style="fill:#ffffff;stroke:#000000;stroke-width:0.133862"
     d="M 17.040777,15.951541 C 16.829054,15.84674 16.486923,15.474771 16.365784,15.217683 16.313102,15.105878 16.20889,14.81568 16.134202,14.5728 16.016706,14.190707 14.59109,8.8666061 14.543027,8.6304 c -0.01737,-0.085389 -0.0127,-0.086397 0.399696,-0.08617 0.588456,3.245e-4 1.050877,0.040868 1.050877,0.092137 0,0.1291271 1.219824,4.751077 1.266404,4.798445 0.08824,0.08973 0.341745,-0.731971 0.966008,-3.131141 L 18.6624,8.6265422 18.9696,8.6018792 c 0.16896,-0.013565 0.48864,-0.019177 0.7104,-0.012471 l 0.4032,0.012192 -0.01227,0.096 C 20.05536,8.8194176 19.352828,11.493619 18.925954,13.056 c -0.655756,2.400104 -0.647828,2.377945 -0.95872,2.67957 -0.301865,0.292866 -0.620871,0.367232 -0.926453,0.215971 z"
     id="path1220" />
</svg>
